<svg version="1" xmlns="http://www.w3.org/2000/svg" width="1138.667" height="1138.667" viewBox="0 0 854.000000 854.000000"><path d="M415 25.7c-12.9.6-33.7 2.4-44 3.8-90.7 12.8-173.3 53.7-236.7 117.2-63 63.2-102 142.2-112.7 228.8-5.7 45.3-4.1 82.1 5.5 128.3 10.2 48.7 31.3 97.6 60.4 139.6 68.3 98.8 177.1 162.6 298.5 175 79.1 8.2 158.6-6 229.5-40.9 42-20.6 77-45.7 109.5-78.4 15.8-15.9 18.5-18.9 30.1-33.6 48.6-61.3 76.4-130.6 84-208.9 1.5-16.1.6-66.2-1.5-81.6-5.1-36.6-14-69.8-27.2-101.3C779 199 724.2 134.5 655 90.9c-17-10.8-19.4-12.1-36.5-20.7-43.8-21.9-90.2-35.9-138.5-41.7-13-1.5-47.5-3.6-54.5-3.3-2.2.1-6.9.3-10.5.5zm51 4.4c39.4 3.4 84.6 14.1 119 28.2 17.3 7.1 19.8 8.2 33.6 15.3 40 20.4 73.7 44.8 104.9 76.1 31.3 31.3 54.7 64.4 75 105.8 45.8 93.3 51.4 200 15.9 298.1-10.4 28.7-22.5 53.1-39.2 78.9-20.4 31.4-44.3 59.2-71 82.4-65.9 57.2-143.6 90.9-232.6 100.8-20.9 2.3-63.7 2.3-84.4 0-59.6-6.7-115.2-24.4-164.7-52.5-9.8-5.6-34.9-21.9-43-28.1-54.8-41.4-99-96.9-125.2-157.1-28.4-65.3-38.5-134.3-29.7-203 8.1-63.4 31.7-123.3 69.6-176.6C154.1 114.1 248.6 54.6 353 35.6c38.2-7 75.2-8.8 113-5.5z"/><path d="M402 44.7c-1.9.1-8.7.8-15 1.4-23.6 2.1-54.1 8.5-79 16.3-39.6 12.5-83 34.4-114.5 57.7-23.7 17.5-56.7 49-73.7 70.4C71.6 251.3 45.2 317.9 38.5 395c-1.9 22-1.9 35 0 56.5 5.6 64.4 25.7 122.9 60.2 175.2 16.9 25.7 38.8 51.4 60.5 71 15.8 14.3 16.2 14.6 26.8 22.7 56.3 42.9 119.5 68.8 192 78.9 13.5 1.9 20.2 2.1 51.5 2.1 32.2 0 37.7-.2 52-2.2 26.7-3.8 48.6-8.8 71.9-16.2 126-40.4 223.2-141.5 256-266.3 8.3-31.6 10.7-49.5 11.3-86.4.6-32.9-.5-47.8-5.3-73.9C788.7 210.1 674.9 91.9 525.7 55.6c-34.8-8.5-62-11.7-97.6-11.4-12.4 0-24.2.3-26.1.5zm61.5 3.3c119.1 11.2 222.4 70.1 288.8 164.8 34.4 49.1 55.9 105.3 63.9 167 2.5 19.9 3 59.3.9 78.7-12 112.5-71.6 210.8-166.3 274.3-54 36.2-115.1 57.8-184.8 65.3-16.8 1.8-58.3 1.6-76.5-.4-67.4-7.5-127.1-28.9-181.5-65-33.9-22.5-66.4-53-91.1-85.3-25.3-33-44.6-69.6-57.8-109.1-20.4-61.5-24.3-123.7-11.5-187.8C68.4 245.9 136.7 152.7 232 98.8c47.2-26.7 102.3-44.6 153.5-49.7 6.1-.6 12.4-1.3 14-1.5 7.2-.8 54-.5 64 .4z"/><path d="M402.8 83.7c-1.6.2-2.8 1-2.8 1.6 0 .7.5 7 1.1 14l1.2 12.8 6.6-.3 6.6-.3-.3-12.5c-.2-6.9-.6-13.3-.8-14.3-.5-1.7-4.5-2.1-11.6-1zM435.7 84.4c-12.7 4.6-17.1 12.7-10.7 20 4 4.5 10.4 6.6 19.9 6.6 7.8-.1 17.5-2.6 16.9-4.5-.2-.6-1.2-.9-2.3-.7-1.1.2-4.2.6-7 .8-8.1.8-14.6-3.8-16.1-11.3-.5-2.6-.1-3.7 1.9-5.7 4.2-4.2 11.7-3 11.7 1.9 0 1.3.4 2.6.9 2.9.4.3 3.5-.9 6.9-2.7l6.1-3.3-6-2.7c-6.7-3.1-15.7-3.6-22.2-1.3zM465.8 87.8c-.3 3.9-.2 4.1 3.1 4.7 2.5.5 3.8.3 4.6-.8.6-.8 2.2-1.7 3.5-1.9 2.9-.4 2.8-1.1 1 13-.7 5.6-1.1 10.4-.9 10.6.2.2 3.2.6 6.5 1l6.2.7 1.1-4.8c.6-2.6 1.6-7.8 2.2-11.6.9-5.5 1.4-6.7 3-6.7 1 0 2.6 1.1 3.5 2.5 1.2 1.8 2.5 2.5 4.9 2.5 3 0 3.3-.3 4-3.6.3-2 .5-3.7.3-3.9-.5-.6-26.9-4.4-34.9-5.1l-7.7-.7-.4 4.1zM365.5 88.1c-9.6 1.4-16.5 3-16.5 3.7 0 1 6.9 26.4 7.2 26.7 1 .9 23.2-4.1 27.5-6.2 8.4-3.9 11.8-10.3 8.8-16.7-3.1-6.4-14-9.5-27-7.5zm9.1 5.5c8.2 3.9 6 16.1-3.3 18l-3 .6-2-9.4c-1.4-6.5-1.6-9.5-.9-10 1.8-1.2 5.6-.9 9.2.8zM512.1 104.6c-1.8 7.4-3.1 13.7-2.9 13.8 1 .8 12 2.7 12.5 2.2 1.2-1.1 8.1-26.1 7.5-26.7-.7-.7-10.3-2.9-12.5-2.9-.8 0-2.5 5.3-4.6 13.6zM318 98.8c-6.9 2-12.4 4.1-12.4 4.5.1.4 2.3 6.4 5 13.3 4.3 10.9 5.2 12.5 6.9 12.1 1.1-.3 6.8-1.8 12.8-3.3 11.3-3.1 11.8-3.4 9.4-8.5-1.1-2.3-1.5-2.5-4.4-1.7-2.3.6-3.3 1.5-3.3 2.8 0 2-3.7 3.8-5 2.3-.4-.4-1-2-1.4-3.5-.6-2.5-.3-2.8 3.6-3.8 2.4-.6 5.1-1.3 6.1-1.6 2.3-.7 2.3-4.4-.1-4.4-1.1 0-4.1.7-6.7 1.5-2.7.8-5 1.3-5.1 1.2-1-1.3-2.4-4.9-2.4-6.1 0-1.8 5.5-2.3 6.5-.6.8 1.2 4.5 1.3 6.4.1 1.1-.7 1.1-1.5.1-4.5-.6-2-1.7-3.6-2.3-3.5-.7 0-6.8 1.7-13.7 3.7zM544.2 100.9c-5 .9-9.2 3.7-11 7.5-5.6 11.4 17.6 26.2 35.1 22.4 14.3-3 14.3-17.3-.1-25.1-4.2-2.3-17.1-6-19.2-5.6-.3.1-2.4.5-4.8.8zm16.6 7.4c6.8 6.3 3.8 19.9-4.1 18.1-4.5-.9-6.5-2.4-8.2-6-2.5-5.3-1.6-12.2 1.9-14.7 1.8-1.2 7.9.3 10.4 2.6zM283.5 111.4c-7.3 2.1-22.1 8.2-24.3 10.1-.3.3 12.6 22.5 13.9 23.9.9 1 11.9-3.3 11.9-4.6 0-.5-.7-2.2-1.5-3.8l-1.6-3h6.1c3.3 0 6.9.5 7.9 1.1 2.6 1.7 14-2.7 13.4-5.2-.4-1.2-2-1.8-6.9-2.2-3.6-.2-6.7-.7-7-.9-.2-.3 1.4-2.3 3.6-4.5 2.2-2.3 4-4.9 4-6 0-5.3-9.6-7.6-19.5-4.9zm5 7.6c1.7 1.8 1.7 2.1.1 4.5-1.9 2.9-7.5 6.7-8.8 5.9-1-.6-4.8-7.9-4.8-9.3 0-1.2 4.7-2.9 8.6-3 1.9-.1 3.8.7 4.9 1.9zM587.4 127.7c-6.3 11.9-6.6 12.7-4.9 14 3.2 2.3 4.3 1.5 8.6-6.2 2.2-4.1 4.4-7.5 4.7-7.5 1.2 0 8.2 18.3 8.2 21.2 0 2 .8 3.1 2.9 4.3l2.9 1.5 8.1-12 8.1-11.9-2.2-1.5c-3.5-2.5-4.5-2-8.4 4.1l-3.7 5.8-2.4-9c-1.3-4.9-2.7-9.3-3.1-9.7-.4-.4-3.3-1.8-6.4-3.2l-5.7-2.5-6.7 12.6zM243.5 131.4c-7.4 2.3-25.5 12.8-25.5 14.7 0 .5 2.1 3.5 4.6 6.7 2.6 3.1 6.1 7.4 7.8 9.6 1.7 2.1 3.4 4.3 3.7 4.8.8 1.2 10.9-4.2 10.9-5.8 0-.6-.9-2.3-2.1-3.8-1.9-2.5-1.9-4.6.2-4.6 2 0 11.7-6.9 13.7-9.7 3.5-5 3.7-7.8.8-10.7-2.9-2.9-7.4-3.3-14.1-1.2zm2.9 8.2c2.8 2.8 2 5.7-2.4 8.7-3.9 2.7-6.6 2.1-9.5-2-3.1-4.7-3.1-4.9.3-6.7 3.6-2 9.7-2 11.6 0zM645.1 159.1c-4.5 5.5-8.4 10.5-8.6 11.2-.2.7 4.2 4.5 9.7 8.5l10.1 7.4 2.3-2.6c1.3-1.4 2.4-2.9 2.4-3.4 0-1.5-4.7-3.5-6.9-2.9-1.1.3-2.8-.1-3.8-.8-1.8-1.4-2-1.2 12.9-18 1.7-2.1 1.7-2.2-3.2-5.8-2.7-2-5.4-3.7-5.9-3.7s-4.6 4.5-9 10.1zM190.5 165.2c-2.7 2.3-9.6 8.5-15.3 13.6l-10.3 9.5 2.7 2.8c1.5 1.6 3.3 2.9 3.9 2.9 2.1 0 4.5-3.6 4.5-6.7 0-6.3 2-5.7 11.9 3.4l9.3 8.6 4.6-4.6 4.7-4.7-9-9-8.9-8.9 2.7-1c1.5-.6 3.3-.8 4.1-.5 1.7.6 6.5-2.5 6.6-4.2 0-1.3-4.2-5.4-5.6-5.4-.5 0-3.1 1.9-5.9 4.2zM673.2 182.3L663 192.6l9.7 9.2 9.7 9.3 3-3c2.9-2.9 2.9-3.1 1.2-5-1-1.1-3-1.9-4.5-1.9-5.5.2-6.8-2.8-2.5-5.7 2.4-1.6 2.7-1.6 4.7.2 1.2 1 3 2.8 4 4 2.1 2.6 3.7 2.9 5.5 1.1 1-1 .2-2.3-3.5-6l-4.8-4.8 2.8-2.6c2.7-2.5 2.9-2.5 4.8-.8 2.2 2 2.5 4 .7 4.7-.9.3-.4 1.4 1.3 3.2l2.7 2.7 3.1-2.3c1.7-1.2 3.1-2.8 3.1-3.5 0-1.2-18.7-19.4-19.9-19.4-.4 0-5.2 4.6-10.9 10.3zM296.7 188.7c-.3.5-3.4 7.8-7 16.3-6.8 16.3-17.9 42.2-20.3 47.7L268 256h26.4c14.6 0 26.7.3 26.9.7.2.5-1.7 5.7-4.3 11.8-2.6 6-11.1 26.1-18.9 44.5-7.8 18.4-15.5 36.4-17 40-1.6 3.6-6.6 15.3-11.1 26s-12.3 28.9-17.2 40.5c-5 11.5-11.9 27.7-15.3 36-3.5 8.2-8.6 20.2-11.3 26.5-10.2 24-17.2 40.9-17.2 41.4 0 .3 22 .6 48.8.6h48.9l7.3-17.3c4-9.4 12.7-29.8 19.2-45.2 6.6-15.4 13.5-31.6 15.3-36 1.8-4.4 5.5-13.2 8.3-19.5 2.7-6.3 11.4-26.6 19.2-45 26.3-62 40.2-94.5 42.5-99.8l2.4-5.2h57.8l1.6-3.8c9.6-22.4 26.7-63.2 26.7-63.6 0-.9-209.8-.7-210.3.1zM155.3 199.2c-4.8 5.2-14.3 17.4-14.3 18.4.1 1 22.4 16.4 23.8 16.4.4 0 3.1-2.8 5.9-6.3 2.8-3.4 6.5-7.8 8.2-9.8l3.1-3.7-3.5-2.7-3.6-2.6-1.9 2.3c-1 1.3-1.7 3.1-1.4 4 .6 2.2-.4 5.8-1.6 5.8-.5 0-2.1-1.1-3.6-2.4l-2.8-2.3 4.2-4.9c3.7-4.4 4-5 2.6-6.4-1.3-1.3-2-1-6.1 3.3-4.3 4.6-4.7 4.8-7.1 3.6-1.3-.8-2.7-2-3-2.8-.7-1.9 2.7-4.2 5.4-3.5 1.7.4 2.7-.1 4-2.1 1.8-2.7 1.8-2.8-1.1-5.1-1.7-1.3-3.2-2.4-3.6-2.4-.3 0-1.9 1.5-3.6 3.2zM705.5 214.6c-4.9.7-10.8 1.3-12.9 1.1-2.2-.1-4.1.3-4.3.9-.2.6 1.6 3.3 4 6 3.9 4.3 4.6 4.7 6.1 3.5 1.2-1 1.4-1.7.5-2.7-.9-1.1-.7-1.5.5-2 2-.8 3.7.6 8.2 6.7 2.5 3.5 3.4 5.5 2.9 7-.6 1.9-.8 1.9-2.4.4-1.6-1.4-2-1.4-3.1 0-1 1.2-.2 2.9 4.6 10 3.2 4.7 6.1 8.5 6.5 8.5 1.1 0 2.9-2.6 2.3-3.3-.3-.3 2.4-6.5 6.1-13.7l6.7-13.2-2.6-3.6c-5.2-7.2-5.1-7.2-9.7-7.1-2.4.1-8.4.7-13.4 1.5zm12.5 4.9c0 1.4-3.3 8.5-4 8.5-.8 0-6-6.4-6-7.4 0-.4 3.1-1 8.3-1.4.9-.1 1.7 0 1.7.3zM132.8 235.9c-.7 1.2-1.7 2.1-2.2 2.1-2.3 0-7.9 5.6-10.3 10.3-3.5 6.9-3.9 18-.7 22.4 7.4 10.2 19.3 6.5 27.2-8.5 1.6-3.1 3.3-7.2 3.7-9 .3-1.7 1.2-3.2 1.9-3.2 1.3 0 5.2-3.8 4.5-4.3-1.4-1.1-13.9-8.7-14.3-8.7-.5 0-9.6 14.4-9.6 15.2 0 1.3 3.3 1.8 4.6.7 1.8-1.5 7.4.7 7.4 2.8 0 .8-1.2 2.5-2.7 3.9-2.5 2.3-3.5 2.6-8.5 2.2-7.1-.5-9.8-2.6-9.8-7.7 0-4.5 2.4-8.1 5.4-8.1 2 0 2.6-.9 3.9-5.7 1.8-6.1 1.6-7.7-.5-4.4zM723.7 248c-3.9 3.9-4 4.2-3.4 9.4.6 6 4.3 14.1 9.3 20.2 2.1 2.5 3.1 4.7 2.8 6-.2 1 0 2.5.5 3.3.8 1.2 2 1 7.8-1.4 3.7-1.5 7.2-3.2 7.8-3.7.9-.8-6.2-16.8-7.5-16.8-1.6.1-3.1 1.9-2.8 3.5.2 1.2-.8 2.5-3 3.8l-3.2 1.9-1.5-3.5c-1.2-3-1.3-4.2-.2-7.4 1.3-4.2 6.5-8.3 10.4-8.3 5 0 11.2 9.9 7.1 11.2-.8.3.6 2.7 3.6 6.1 2.7 3.1 5 5.7 5.2 5.7.2 0-.1-1.2-.6-2.6-.6-1.4-1-4.2-1-6.2 0-6.3-1.9-10.8-6.7-16.2-5.5-6.1-10.7-9-16.4-9-3.5 0-4.8.6-8.2 4z"/><path d="M112.5 273.8c-5.8 3.6-10.5 11.4-16.1 26.9-3.8 10.5-3.9 11.3-2.1 11.3.6 0 6.7 1.8 13.5 4s12.7 4 13.2 4c.8 0 5.5-12.9 4.9-13.4-.2-.1-1.9-.8-3.6-1.5-1.8-.8-3.3-1.6-3.3-2 0-1.3 7.5-7.9 9.9-8.6 1.6-.5 3.2-2.6 5.1-6.9 2.6-5.6 2.7-6.2 1.2-7.4-1.4-1-1.9-.9-3.2.6-1.5 1.9-8.3 7.2-9.1 7.2-.3 0-.5-2.7-.4-5.9 0-9.1-3.6-12.1-10-8.3zm2 13.9c1.4 1.3 1.6 2.8 1.2 7.1-.3 3-1 5.9-1.4 6.3-.8.8-9.4-1.9-10.9-3.4-1.1-1.1 1.7-6.6 4.8-9.2 3.5-3 4.1-3 6.3-.8zM468.5 275.5c-10.4 2-17.8 4.9-25.5 10-12.6 8.4-16.5 14.4-30.1 46.5-4.5 10.7-9.4 22.4-10.9 26-1.6 3.6-5.3 12.3-8.3 19.5-3 7.1-12.1 28.5-20.2 47.5s-15.8 37-17 40c-5.2 12.6-46.8 110.4-56.1 131.9-2.9 6.8-5.1 12.8-4.8 13.3.3.4 21.4.8 46.9.8 44.5 0 46.5-.1 47.4-1.9.9-1.7 25.8-60 31.6-74.1 2.6-6.4 9.7-23.2 22-52 4.7-11.3 10.8-25.7 13.5-32 2.6-6.3 7-16.7 9.8-23 2.7-6.3 10-23.4 16.2-38 6.2-14.6 13.3-31.5 15.9-37.5l4.7-11 11.7-.3c6.5-.1 11.7.1 11.7.6s-.9 2.9-1.9 5.3c-1 2.4-4.2 10-7.1 16.9-2.8 6.9-6.5 15.4-8 19-1.6 3.6-9.2 21.3-16.8 39.5-7.7 18.1-18.3 43.2-23.6 55.6-5.3 12.5-9.6 23-9.6 23.4 0 .4 15.6.5 34.8.2 38.7-.5 42.2-1 54.4-7.4 8.4-4.4 16.5-12.8 20.7-21.5 1.6-3.5 6.8-15.5 11.6-26.8 9.6-23 11-26.2 15.8-37.5 11.7-27 42.3-99.8 43.8-104.4 2.4-6.8 2.4-10.5 0-15.6-2.3-5.2-6.5-8.7-13.8-11.7l-5.8-2.3-73-.2c-57.6-.1-74.5.1-80 1.2zM755.6 295.5c-5.9 2.4-10.9 4.5-11.1 4.7-1.1 1.3-2.5 5-2.5 6.6 0 3.8 4.1 15.1 6.5 18 2 2.4 2.2 3.1 1.1 4.3-1 1.1-1 2.6.2 7.6.7 3.5 1.9 6.3 2.5 6.3.7 0 7.4-1.4 14.9-3.2 13.6-3.2 13.7-3.2 13.2-5.7-1.6-7-3.6-13.1-4.3-13.1-.5 0-5.1 1.3-10.3 2.8-6.3 1.9-10.3 2.6-11.7 2-2.6-.9-4.3-5.1-3.9-9.2.3-3 .8-3.3 10.5-6.6 5.6-1.9 10.5-3.8 10.9-4.2.6-.7-3.1-12.5-4.5-14-.3-.4-5.5 1.3-11.5 3.7zM115.3 325.4c-.4.8-3.5 2.2-6.8 3.1-3.3 1-9.7 3.1-14.1 4.7l-8.1 2.9-1.6 7.7-1.6 7.7 11.3 11c6.3 6 11.6 11.8 12 12.7 1.2 3.8 3.4 1.9 4.1-3.5.3-2.8.8-6.4 1.1-7.8.4-2.1 0-2.8-1.7-3.2-1.5-.4-2.3-.1-2.6 1.4-.3 1-.9 1.9-1.4 1.9-1.9 0-2.1-3.2-.9-11.1.9-5.8 1.7-8.2 3.1-8.9 2.6-1.4 2.9-1.3 2.6 1.2-.1 1.6.4 2.4 1.8 2.6 1.8.2 2.4-1 4.8-10.9 2.2-8.9 2.5-11.4 1.5-12.1-1.8-1.1-2.6-1-3.5.6zm-14.7 24.3c-.3 2.1-.6 4.6-.6 5.5 0 1-.4 1.8-.9 1.8-1.1 0-7.1-6.1-7.1-7.1 0-.6 6.6-3.6 8.4-3.8.5-.1.6 1.6.2 3.6zM767.5 353.9c-7.1 1.5-12.9 3.2-12.8 3.7.1.5.9 7.3 1.9 15.1l1.7 14.3h4.4c4.1 0 4.3-.1 4.3-2.9 0-4-.9-6.1-2.6-6.1-1.7 0-3.9-5-2.7-6 .4-.4 2.2-1 4-1.3 3.7-.7 3.8-.5 4.8 9 .6 5.5 1 6.3 2.7 6.3 2 0 2.1-.4 1.4-8.4l-.6-8.4 4-.4c3.9-.3 4-.3 4 2.9 0 1.7-.7 3.8-1.5 4.7-.8.8-1.5 3.1-1.5 5 0 3.6 0 3.6 4.5 3.6 5.2 0 5.2.2 3.5-13-2.1-16.8-3.1-21-4.8-20.9-1 .1-7.5 1.3-14.7 2.8zM668.3 367c-1.8.7-2.3 1.7-2.3 4.9 0 4.6.8 5.3 6.2 5.7 5.1.5 7.1 2.6 7.8 8.3.5 4.5.6 4.6 4.5 5.2 7.5 1 9 2.6 9.7 10.4.3 2.8.7 3 5.3 3.7 5.9.8 8.5 3.4 8.6 8.7l.1 3.6 2-4.5c5.7-12.4 2.2-28.9-8.1-38.3-7.1-6.4-11.4-8-22.1-8.4-5.2-.2-10.5.1-11.7.7zM80.6 371.2c-1.4 9.1-2.5 25.8-2.6 36.5V419h8v-4.1c0-2.5-.6-4.6-1.5-5.3-.8-.6-1.8-2.6-2.1-4.5l-.7-3.4 12.9.4 12.9.4.5-7.7.5-7.7-4-.5c-2.2-.3-7.7-.8-12.3-1.2-4.5-.4-8.5-1-8.8-1.5-.6-1.1 2.2-6.6 3.6-7.1.6-.2 1.4-2.2 1.7-4.6.5-4 .4-4.2-2-4.2-1.4 0-3.2-.3-4-.6-1.1-.4-1.6.6-2.1 3.8z"/><path d="M656.1 374c-3.1 2.6-3.3 3.1-2.3 5.7.6 1.5 1.2 4.1 1.4 5.8.2 1.7.9 3.1 1.8 3.2 7.7 1 9.1 1.5 10.5 4.3.8 1.6 1.5 4.5 1.5 6.5 0 3.3.2 3.5 3.5 3.5 6.7 0 9.4 2.4 10 9.1.4 4.1 1.3 4.9 5.4 4.9 4.6 0 8.2 3.4 8.3 7.9.1 1.7.6 3.1 1.3 3.1 1.9 0 7.8-6.7 6.6-7.4-.6-.4-1.1-2.4-1.1-4.5 0-4.7-1.4-6.1-6.1-6.1-4.8 0-7.9-3.6-7.9-9 0-4.2-1.1-5-6.5-5-4.2 0-7.5-3.8-7.5-8.5 0-4-1.4-5.2-5.9-5.2-4.2 0-8.1-4-8.1-8.4 0-3.6-.6-3.6-4.9.1z"/><path d="M646.5 388.5c-2.4 7.8-1.8 19.3 1.5 26 3.2 6.5 10.1 13.2 17 16.3 4.4 2 7.1 2.6 13.5 2.6 4.4 0 9.1-.5 10.5-1.1 2.3-1 2.5-1.5 2.2-5.7l-.4-4.6H687c-5.5 0-9.2-3.4-9.5-8.6-.1-2.1-.3-4.2-.4-4.7 0-.4-1.8-.7-4-.7-5.3 0-9.1-3.1-9.1-7.5 0-5.4-.8-6.5-5-6.5-5.3 0-9-3.1-9-7.6 0-5-1.5-4.1-3.5 2.1zM648.7 455.7c-12.5 23.8-37.6 68.7-42.2 75.8-1.8 2.7-5.8 9.3-8.9 14.5-3.1 5.2-6 10-6.4 10.7-4.8 8-24.6 38.4-25.3 38.9-2.9 1.8.4 2.4 12.9 2.4h13.7l2.3-4.3c5.7-10.2 26.3-51.9 29.2-59.2 1.8-4.4 3.8-8.7 4.5-9.5 2.6-3.2 33.5-75.6 33.5-78.4 0-.8-.8-1.6-1.7-1.9-1-.2-2.5-.8-3.3-1.1-1.1-.5-3.2 2.6-8.3 12.1z"/><path d="M447.5 531.6c-1.9 4.2-3.5 7.8-3.5 8 0 .1-4 9.6-8.9 21.1-4.9 11.4-11.9 28-15.6 36.8-3.7 8.8-10.1 23.9-14.2 33.5-12.7 29.5-14.3 34.3-14.3 40.9 0 9.2 2.8 13.9 10.5 17.9 8.2 4.1 12.6 4.3 87 4 78.8-.4 75-.1 90.3-7.3 8.6-4.1 18.3-13.1 22.6-21.2 1.6-2.8 5.8-12.2 9.5-21l6.8-15.8-56.4-.3c-36.2-.1-56.3-.6-56.3-1.2 0-.5 5.7-14.4 12.6-30.7 6.9-16.4 14.1-33.4 15.9-37.8 1.9-4.4 5.6-13.4 8.4-20 2.8-6.6 5.1-12.5 5.1-13.2 0-1-10-1.3-48-1.3h-48.1l-3.4 7.6z"/></svg>